<svg width="18" height="18" viewBox="0 0 18 18" fill="none" xmlns="http://www.w3.org/2000/svg">
<path d="M4.22116 2.17258L5.17699 3.53841C4.01548 4.35156 3.14346 5.51383 2.68761 6.85641C2.23176 8.19899 2.21583 9.65194 2.64212 11.0042C3.06842 12.3564 3.91473 13.5376 5.05814 14.376C6.20154 15.2144 7.58247 15.6665 9.00033 15.6665C10.4182 15.6665 11.7991 15.2144 12.9425 14.376C14.0859 13.5376 14.9322 12.3564 15.3585 11.0042C15.7848 9.65194 15.7689 8.19899 15.313 6.85641C14.8572 5.51383 13.9852 4.35156 12.8237 3.53841L13.7795 2.17258C14.8778 2.94044 15.7744 3.96213 16.3932 5.1508C17.012 6.33948 17.3346 7.65999 17.3337 9.00008C17.3337 13.6026 13.6028 17.3334 9.00033 17.3334C4.39783 17.3334 0.666994 13.6026 0.666994 9.00008C0.666029 7.65999 0.988652 6.33948 1.60744 5.1508C2.22622 3.96213 3.12287 2.94044 4.22116 2.17258ZM8.167 9.00008V0.666748H9.83366V9.00008H8.167Z" fill="#FF3D60"/>
</svg>
