<svg width="19" height="18" viewBox="0 0 19 18" fill="none" xmlns="http://www.w3.org/2000/svg">
<path d="M8.33334 8.16663V5.66663L12.5 8.99996L8.33334 12.3333V9.83329H0.833336V8.16663H8.33334ZM2.04834 11.5H3.81834C4.40004 12.9325 5.46142 14.1185 6.82093 14.8549C8.18044 15.5914 9.75359 15.8326 11.2713 15.5372C12.789 15.2419 14.1569 14.4285 15.1411 13.236C16.1253 12.0435 16.6646 10.5461 16.6667 8.99996C16.6675 7.45218 16.1298 5.95232 15.1458 4.75764C14.1617 3.56297 12.7926 2.74792 11.2733 2.4523C9.75402 2.15668 8.17921 2.39891 6.81898 3.13744C5.45876 3.87597 4.39789 5.06478 3.81834 6.49996H2.04834C3.11 3.11913 6.26834 0.666626 10 0.666626C14.6025 0.666626 18.3333 4.39746 18.3333 8.99996C18.3333 13.6025 14.6025 17.3333 10 17.3333C6.26834 17.3333 3.11 14.8808 2.04834 11.5Z" fill="black"/>
</svg>
